<svg xmlns="http://www.w3.org/2000/svg" version="1.1" xmlns:xlink="http://www.w3.org/1999/xlink" xmlns:svgjs="http://svgjs.dev/svgjs" width="1000" height="1000" viewBox="0 0 1000 1000"><rect width="1000" height="1000" fill="#ffffff"></rect><g transform="matrix(0.7,0,0,0.7,149.57588926899814,385.3913811194203)"><svg viewBox="0 0 396 130" data-background-color="#ffffff" preserveAspectRatio="xMidYMid meet" height="328" width="1000" xmlns="http://www.w3.org/2000/svg" xmlns:xlink="http://www.w3.org/1999/xlink"><g id="tight-bounds" transform="matrix(1,0,0,1,0.239925504754126,-0.10836038991570263)"><svg viewBox="0 0 395.52 130.21657178383802" height="130.21657178383802" width="395.52"><g><svg viewBox="0 0 625.6705651323612 205.98876430418844" height="130.21657178383802" width="395.52"><g transform="matrix(1,0,0,1,0,60.98969262585774)"><svg viewBox="0 0 395.52 84.00937905247295" height="84.00937905247295" width="395.52"><g><svg viewBox="0 0 395.52 84.00937905247295" height="84.00937905247295" width="395.52"><g><svg viewBox="0 0 395.52 51.17377630121817" height="51.17377630121817" width="395.52"><g transform="matrix(1,0,0,1,0,0)"><svg width="395.52" viewBox="0.4000000059604645 -34.45000076293945 270.8800048828125 35.04999923706055" height="51.17377630121817" data-palette-color="#f9e17e"><g class="undefined-text-0" data-fill-palette-color="primary" id="text-0"><path d="M23.95 0L19.3 0 17.25-8.75 6.95-8.75 4.9 0 0.4 0 9.35-34.45 15-34.45 23.95 0ZM12.1-30.65L7.8-12.4 16.4-12.4 12.1-30.65ZM34.6-34.45Q38.8-34.45 41.87-33.13 44.95-31.8 46.87-28.03 48.8-24.25 48.8-17.4L48.8-17.4Q48.8-7.65 45-3.83 41.2 0 35.35 0L35.35 0 28.15 0 28.15-34.45 34.6-34.45ZM35.45-30.8L32.7-30.8 32.7-3.6 35.65-3.6Q38.15-3.6 39.97-4.7 41.8-5.8 42.92-8.83 44.05-11.85 44.05-17.4L44.05-17.4Q44.05-23.05 42.87-25.98 41.7-28.9 39.87-29.85 38.05-30.8 35.45-30.8L35.45-30.8ZM69.8-34.45L74.25-34.45 65.55 0 60.3 0 51.45-34.45 56.05-34.45 63-4.9 69.8-34.45ZM78.44-34.45L94.24-34.45 93.74-30.8 82.99-30.8 82.99-19.35 92.34-19.35 92.34-15.7 82.99-15.7 82.99-3.65 94.44-3.65 94.44 0 78.44 0 78.44-34.45ZM120.44-34.45L120.44 0 114.39 0 103.79-29.35Q104.09-25.85 104.27-23.1 104.44-20.35 104.44-16.2L104.44-16.2 104.44 0 100.19 0 100.19-34.45 106.24-34.45 116.84-5.05Q116.64-5.8 116.42-9.15 116.19-12.5 116.19-15.4L116.19-15.4 116.19-34.45 120.44-34.45ZM124.79-34.45L145.34-34.45 144.84-30.65 137.19-30.65 137.19 0 132.64 0 132.64-30.65 124.79-30.65 124.79-34.45ZM169.24-34.45L169.24-9.25Q169.24-6.5 168.06-4.25 166.89-2 164.59-0.7 162.29 0.6 159.09 0.6L159.09 0.6Q154.24 0.6 151.59-2.18 148.94-4.95 148.94-9.25L148.94-9.25 148.94-34.45 153.49-34.45 153.49-9.6Q153.49-3.25 159.09-3.25L159.09-3.25Q164.69-3.25 164.69-9.6L164.69-9.6 164.69-34.45 169.24-34.45ZM196.73 0L191.73 0 185.03-14.75Q184.68-14.7 183.98-14.7L183.98-14.7 180.88-14.7 180.88 0 176.33 0 176.33-34.45 183.23-34.45Q189.28-34.45 192.23-31.95 195.18-29.45 195.18-24.75L195.18-24.75Q195.18-21.45 193.63-19.07 192.08-16.7 189.18-15.6L189.18-15.6 196.73 0ZM183.58-18.2Q187.18-18.2 188.78-19.78 190.38-21.35 190.38-24.75L190.38-24.75Q190.38-27.9 188.73-29.38 187.08-30.85 183.18-30.85L183.18-30.85 180.88-30.85 180.88-18.2 183.58-18.2ZM221.58 0L216.93 0 214.88-8.75 204.58-8.75 202.53 0 198.03 0 206.98-34.45 212.63-34.45 221.58 0ZM209.73-30.65L205.43-12.4 214.03-12.4 209.73-30.65ZM246.18 0L241.18 0 234.48-14.75Q234.13-14.7 233.43-14.7L233.43-14.7 230.33-14.7 230.33 0 225.78 0 225.78-34.45 232.68-34.45Q238.73-34.45 241.68-31.95 244.63-29.45 244.63-24.75L244.63-24.75Q244.63-21.45 243.08-19.07 241.53-16.7 238.63-15.6L238.63-15.6 246.18 0ZM233.03-18.2Q236.63-18.2 238.23-19.78 239.83-21.35 239.83-24.75L239.83-24.75Q239.83-27.9 238.18-29.38 236.53-30.85 232.63-30.85L232.63-30.85 230.33-30.85 230.33-18.2 233.03-18.2ZM271.28 0L266.28 0 259.58-14.75Q259.23-14.7 258.53-14.7L258.53-14.7 255.43-14.7 255.43 0 250.88 0 250.88-34.45 257.78-34.45Q263.83-34.45 266.78-31.95 269.73-29.45 269.73-24.75L269.73-24.75Q269.73-21.45 268.18-19.07 266.63-16.7 263.73-15.6L263.73-15.6 271.28 0ZM258.13-18.2Q261.73-18.2 263.33-19.78 264.93-21.35 264.93-24.75L264.93-24.75Q264.93-27.9 263.28-29.38 261.63-30.85 257.73-30.85L257.73-30.85 255.43-30.85 255.43-18.2 258.13-18.2Z" fill="#f9e17e" data-fill-palette-color="primary"></path></g></svg></g></svg></g><g transform="matrix(1,0,0,1,163.310208,63.25467671530455)"><svg viewBox="0 0 232.209792 20.754702337168393" height="20.754702337168393" width="232.209792"><g transform="matrix(1,0,0,1,0,0)"><svg width="232.209792" viewBox="2.25 -37 525.7999877929688 47" height="20.754702337168393" data-palette-color="#f9e17e"><path d="M29.6-32.7L29.6-32.7Q30.45-32.25 30.58-31.35 30.7-30.45 30.1-29.7L30.1-29.7Q29.65-29.05 28.95-29 28.25-28.95 27.55-29.3L27.55-29.3Q25.9-30.3 24-30.88 22.1-31.45 20-31.45L20-31.45Q17.05-31.45 14.6-30.43 12.15-29.4 10.35-27.55 8.55-25.7 7.55-23.15 6.55-20.6 6.55-17.5L6.55-17.5Q6.55-14.2 7.6-11.6 8.65-9 10.48-7.18 12.3-5.35 14.73-4.4 17.15-3.45 20-3.45L20-3.45Q22.05-3.45 23.95-4 25.85-4.55 27.55-5.6L27.55-5.6Q28.25-5.95 28.95-5.85 29.65-5.75 30.15-5.15L30.15-5.15Q30.75-4.35 30.6-3.48 30.45-2.6 29.65-2.2L29.65-2.2Q28.4-1.45 26.8-0.83 25.2-0.2 23.48 0.15 21.75 0.5 20 0.5L20 0.5Q16.4 0.5 13.2-0.75 10-2 7.55-4.35 5.1-6.7 3.68-10.03 2.25-13.35 2.25-17.5L2.25-17.5Q2.25-21.4 3.6-24.65 4.95-27.9 7.38-30.3 9.8-32.7 13.03-34.05 16.25-35.4 20-35.4L20-35.4Q22.6-35.4 25.08-34.7 27.55-34 29.6-32.7ZM37.95 0L37.95 0Q37.1 0 36.52-0.6 35.95-1.2 35.95-2.05L35.95-2.05 35.95-23.85Q35.95-24.7 36.52-25.28 37.1-25.85 37.95-25.85L37.95-25.85Q38.85-25.85 39.4-25.28 39.95-24.7 39.95-23.85L39.95-23.85 39.95-17.25 39.35-18.3Q39.65-19.85 40.42-21.33 41.2-22.8 42.4-23.98 43.6-25.15 45.15-25.83 46.7-26.5 48.55-26.5L48.55-26.5Q49.65-26.5 50.57-25.98 51.5-25.45 51.5-24.5L51.5-24.5Q51.5-23.45 50.95-22.95 50.4-22.45 49.7-22.45L49.7-22.45Q49.05-22.45 48.45-22.73 47.85-23 46.95-23L46.95-23Q45.7-23 44.47-22.33 43.25-21.65 42.22-20.4 41.2-19.15 40.57-17.57 39.95-16 39.95-14.2L39.95-14.2 39.95-2.05Q39.95-1.2 39.37-0.6 38.8 0 37.95 0ZM66.59 0.5L66.59 0.5Q62.59 0.5 59.59-1.2 56.59-2.9 54.95-5.88 53.3-8.85 53.3-12.75L53.3-12.75Q53.3-17.1 55.02-20.18 56.75-23.25 59.5-24.88 62.25-26.5 65.34-26.5L65.34-26.5Q67.69-26.5 69.82-25.65 71.94-24.8 73.62-23.18 75.3-21.55 76.3-19.28 77.3-17 77.34-14.2L77.34-14.2Q77.3-13.4 76.69-12.85 76.09-12.3 75.3-12.3L75.3-12.3 55.55-12.3 54.65-15.75 73.9-15.75 73.09-15.05 73.09-16.15Q72.94-18.2 71.77-19.68 70.59-21.15 68.89-21.95 67.19-22.75 65.34-22.75L65.34-22.75Q63.84-22.75 62.37-22.23 60.9-21.7 59.72-20.53 58.55-19.35 57.84-17.5 57.15-15.65 57.15-13.05L57.15-13.05Q57.15-10.15 58.32-7.95 59.5-5.75 61.59-4.48 63.7-3.2 66.44-3.2L66.44-3.2Q68.25-3.2 69.55-3.65 70.84-4.1 71.77-4.78 72.69-5.45 73.34-6.15L73.34-6.15Q74-6.6 74.65-6.6L74.65-6.6Q75.34-6.6 75.84-6.1 76.34-5.6 76.34-4.9L76.34-4.9Q76.34-4.05 75.55-3.4L75.55-3.4Q74.09-1.85 71.72-0.68 69.34 0.5 66.59 0.5ZM104.34-26.1L104.34-26.1Q105.24-26.1 105.79-25.53 106.34-24.95 106.34-24.1L106.34-24.1 106.34-2.05Q106.34-1.2 105.77-0.6 105.19 0 104.34 0L104.34 0Q103.49 0 102.92-0.6 102.34-1.2 102.34-2.05L102.34-2.05 102.34-6.8 103.29-6.9Q103.29-5.8 102.54-4.5 101.79-3.2 100.49-2.08 99.19-0.95 97.44-0.23 95.69 0.5 93.64 0.5L93.64 0.5Q90.24 0.5 87.52-1.28 84.79-3.05 83.24-6.1 81.69-9.15 81.69-13.05L81.69-13.05Q81.69-17 83.27-20.03 84.84-23.05 87.52-24.78 90.19-26.5 93.54-26.5L93.54-26.5Q95.69-26.5 97.54-25.8 99.39-25.1 100.77-23.9 102.14-22.7 102.89-21.25 103.64-19.8 103.64-18.35L103.64-18.35 102.34-18.65 102.34-24.1Q102.34-24.95 102.92-25.53 103.49-26.1 104.34-26.1ZM94.04-3.2L94.04-3.2Q96.54-3.2 98.47-4.5 100.39-5.8 101.49-8.03 102.59-10.25 102.59-13.05L102.59-13.05Q102.59-15.8 101.49-18.03 100.39-20.25 98.47-21.53 96.54-22.8 94.04-22.8L94.04-22.8Q91.59-22.8 89.67-21.55 87.74-20.3 86.64-18.1 85.54-15.9 85.54-13.05L85.54-13.05Q85.54-10.25 86.64-8.03 87.74-5.8 89.67-4.5 91.59-3.2 94.04-3.2ZM112.74-25.7L112.74-25.7 124.49-25.7Q125.29-25.7 125.82-25.15 126.34-24.6 126.34-23.85L126.34-23.85Q126.34-23.05 125.82-22.53 125.29-22 124.49-22L124.49-22 112.74-22Q111.99-22 111.44-22.55 110.89-23.1 110.89-23.9L110.89-23.9Q110.89-24.65 111.44-25.18 111.99-25.7 112.74-25.7ZM117.99-32.5L117.99-32.5Q118.84-32.5 119.39-31.93 119.94-31.35 119.94-30.5L119.94-30.5 119.94-6.35Q119.94-5.15 120.29-4.55 120.64-3.95 121.22-3.73 121.79-3.5 122.34-3.5L122.34-3.5Q122.84-3.5 123.22-3.68 123.59-3.85 124.09-3.85L124.09-3.85Q124.59-3.85 125.02-3.38 125.44-2.9 125.44-2.15L125.44-2.15Q125.44-1.25 124.39-0.63 123.34 0 122.04 0L122.04 0Q121.34 0 120.32-0.1 119.29-0.2 118.29-0.75 117.29-1.3 116.62-2.58 115.94-3.85 115.94-6.15L115.94-6.15 115.94-30.5Q115.94-31.35 116.54-31.93 117.14-32.5 117.99-32.5ZM143.34 0.5L143.34 0.5Q139.34 0.5 136.34-1.2 133.34-2.9 131.69-5.88 130.04-8.85 130.04-12.75L130.04-12.75Q130.04-17.1 131.76-20.18 133.49-23.25 136.24-24.88 138.99-26.5 142.09-26.5L142.09-26.5Q144.44-26.5 146.56-25.65 148.69-24.8 150.36-23.18 152.04-21.55 153.04-19.28 154.04-17 154.09-14.2L154.09-14.2Q154.04-13.4 153.44-12.85 152.84-12.3 152.04-12.3L152.04-12.3 132.29-12.3 131.39-15.75 150.64-15.75 149.84-15.05 149.84-16.15Q149.69-18.2 148.51-19.68 147.34-21.15 145.64-21.95 143.94-22.75 142.09-22.75L142.09-22.75Q140.59-22.75 139.11-22.23 137.64-21.7 136.46-20.53 135.29-19.35 134.59-17.5 133.89-15.65 133.89-13.05L133.89-13.05Q133.89-10.15 135.06-7.95 136.24-5.75 138.34-4.48 140.44-3.2 143.19-3.2L143.19-3.2Q144.99-3.2 146.29-3.65 147.59-4.1 148.51-4.78 149.44-5.45 150.09-6.15L150.09-6.15Q150.74-6.6 151.39-6.6L151.39-6.6Q152.09-6.6 152.59-6.1 153.09-5.6 153.09-4.9L153.09-4.9Q153.09-4.05 152.29-3.4L152.29-3.4Q150.84-1.85 148.46-0.68 146.09 0.5 143.34 0.5ZM192.93-26.25L192.93-26.25Q193.78-26.25 194.36-25.68 194.93-25.1 194.93-24.25L194.93-24.25 194.93-2.45Q194.93 1.75 193.28 4.53 191.63 7.3 188.86 8.65 186.08 10 182.58 10L182.58 10Q180.63 10 178.83 9.6 177.03 9.2 175.88 8.55L175.88 8.55Q174.93 8.1 174.56 7.43 174.18 6.75 174.43 6L174.43 6Q174.78 5.1 175.46 4.75 176.13 4.4 176.88 4.75L176.88 4.75Q177.68 5.1 179.21 5.73 180.73 6.35 182.63 6.35L182.63 6.35Q185.23 6.35 187.08 5.35 188.93 4.35 189.93 2.43 190.93 0.5 190.93-2.35L190.93-2.35 190.93-5.9 191.53-4.65Q190.73-3.1 189.38-1.95 188.03-0.8 186.28-0.15 184.53 0.5 182.43 0.5L182.43 0.5Q179.58 0.5 177.61-0.73 175.63-1.95 174.61-4.13 173.58-6.3 173.58-9.15L173.58-9.15 173.58-24.25Q173.58-25.1 174.16-25.68 174.73-26.25 175.58-26.25L175.58-26.25Q176.48-26.25 177.03-25.68 177.58-25.1 177.58-24.25L177.58-24.25 177.58-10.05Q177.58-6.65 179.08-4.93 180.58-3.2 183.73-3.2L183.73-3.2Q185.73-3.2 187.36-4.1 188.98-5 189.96-6.58 190.93-8.15 190.93-10.05L190.93-10.05 190.93-24.25Q190.93-25.1 191.48-25.68 192.03-26.25 192.93-26.25ZM226.38-13L226.38-13Q226.38-9.1 224.68-6.05 222.98-3 220.06-1.25 217.13 0.5 213.43 0.5L213.43 0.5Q209.78 0.5 206.86-1.25 203.93-3 202.21-6.05 200.48-9.1 200.48-13L200.48-13Q200.48-16.9 202.21-19.95 203.93-23 206.86-24.75 209.78-26.5 213.43-26.5L213.43-26.5Q217.13-26.5 220.06-24.75 222.98-23 224.68-19.95 226.38-16.9 226.38-13ZM222.38-13L222.38-13Q222.38-15.9 221.21-18.1 220.03-20.3 218.01-21.55 215.98-22.8 213.43-22.8L213.43-22.8Q210.93-22.8 208.88-21.55 206.83-20.3 205.66-18.1 204.48-15.9 204.48-13L204.48-13Q204.48-10.15 205.66-7.95 206.83-5.75 208.88-4.48 210.93-3.2 213.43-3.2L213.43-3.2Q215.98-3.2 218.01-4.48 220.03-5.75 221.21-7.95 222.38-10.15 222.38-13ZM251.53-25.85L251.53-25.85Q252.43-25.85 252.98-25.28 253.53-24.7 253.53-23.85L253.53-23.85 253.53-10.2Q253.53-5.15 250.7-2.38 247.88 0.4 242.83 0.4L242.83 0.4Q237.83 0.4 235-2.38 232.18-5.15 232.18-10.2L232.18-10.2 232.18-23.85Q232.18-24.7 232.75-25.28 233.33-25.85 234.18-25.85L234.18-25.85Q235.08-25.85 235.63-25.28 236.18-24.7 236.18-23.85L236.18-23.85 236.18-10.2Q236.18-6.8 237.93-5.05 239.68-3.3 242.83-3.3L242.83-3.3Q246.08-3.3 247.8-5.05 249.53-6.8 249.53-10.2L249.53-10.2 249.53-23.85Q249.53-24.7 250.1-25.28 250.68-25.85 251.53-25.85ZM262.93 0L262.93 0Q262.08 0 261.5-0.6 260.93-1.2 260.93-2.05L260.93-2.05 260.93-23.85Q260.93-24.7 261.5-25.28 262.08-25.85 262.93-25.85L262.93-25.85Q263.83-25.85 264.38-25.28 264.93-24.7 264.93-23.85L264.93-23.85 264.93-17.25 264.33-18.3Q264.63-19.85 265.4-21.33 266.18-22.8 267.38-23.98 268.58-25.15 270.13-25.83 271.68-26.5 273.53-26.5L273.53-26.5Q274.63-26.5 275.55-25.98 276.48-25.45 276.48-24.5L276.48-24.5Q276.48-23.45 275.93-22.95 275.38-22.45 274.68-22.45L274.68-22.45Q274.03-22.45 273.43-22.73 272.83-23 271.93-23L271.93-23Q270.68-23 269.45-22.33 268.23-21.65 267.2-20.4 266.18-19.15 265.55-17.57 264.93-16 264.93-14.2L264.93-14.2 264.93-2.05Q264.93-1.2 264.35-0.6 263.78 0 262.93 0ZM315.77-26.1L315.77-26.1Q316.67-26.1 317.22-25.53 317.77-24.95 317.77-24.1L317.77-24.1 317.77-2.05Q317.77-1.2 317.2-0.6 316.62 0 315.77 0L315.77 0Q314.92 0 314.35-0.6 313.77-1.2 313.77-2.05L313.77-2.05 313.77-6.8 314.72-6.9Q314.72-5.8 313.97-4.5 313.22-3.2 311.92-2.08 310.62-0.95 308.87-0.23 307.12 0.5 305.07 0.5L305.07 0.5Q301.67 0.5 298.95-1.28 296.22-3.05 294.67-6.1 293.12-9.15 293.12-13.05L293.12-13.05Q293.12-17 294.7-20.03 296.27-23.05 298.95-24.78 301.62-26.5 304.97-26.5L304.97-26.5Q307.12-26.5 308.97-25.8 310.82-25.1 312.2-23.9 313.57-22.7 314.32-21.25 315.07-19.8 315.07-18.35L315.07-18.35 313.77-18.65 313.77-24.1Q313.77-24.95 314.35-25.53 314.92-26.1 315.77-26.1ZM305.47-3.2L305.47-3.2Q307.97-3.2 309.9-4.5 311.82-5.8 312.92-8.03 314.02-10.25 314.02-13.05L314.02-13.05Q314.02-15.8 312.92-18.03 311.82-20.25 309.9-21.53 307.97-22.8 305.47-22.8L305.47-22.8Q303.02-22.8 301.1-21.55 299.17-20.3 298.07-18.1 296.97-15.9 296.97-13.05L296.97-13.05Q296.97-10.25 298.07-8.03 299.17-5.8 301.1-4.5 303.02-3.2 305.47-3.2ZM346.22-37L346.22-37Q347.12-37 347.67-36.43 348.22-35.85 348.22-35L348.22-35 348.22-2.05Q348.22-1.2 347.64-0.6 347.07 0 346.22 0L346.22 0Q345.37 0 344.79-0.6 344.22-1.2 344.22-2.05L344.22-2.05 344.22-6.8 345.17-7.15Q345.17-5.95 344.44-4.63 343.72-3.3 342.39-2.15 341.07-1 339.32-0.25 337.57 0.5 335.52 0.5L335.52 0.5Q332.12 0.5 329.42-1.25 326.72-3 325.14-6.05 323.57-9.1 323.57-13L323.57-13Q323.57-16.95 325.14-20 326.72-23.05 329.39-24.78 332.07-26.5 335.42-26.5L335.42-26.5Q337.52-26.5 339.34-25.8 341.17-25.1 342.57-23.9 343.97-22.7 344.74-21.25 345.52-19.8 345.52-18.35L345.52-18.35 344.22-18.65 344.22-35Q344.22-35.85 344.79-36.43 345.37-37 346.22-37ZM335.92-3.2L335.92-3.2Q338.47-3.2 340.37-4.48 342.27-5.75 343.37-7.98 344.47-10.2 344.47-13L344.47-13Q344.47-15.85 343.37-18.05 342.27-20.25 340.34-21.53 338.42-22.8 335.92-22.8L335.92-22.8Q333.47-22.8 331.54-21.53 329.62-20.25 328.52-18.05 327.42-15.85 327.42-13L327.42-13Q327.42-10.25 328.52-8.03 329.62-5.8 331.54-4.5 333.47-3.2 335.92-3.2ZM355.62-26.3L355.62-26.3Q356.22-26.3 356.77-25.98 357.32-25.65 357.57-25.05L357.57-25.05 365.87-5.55 365.07-5.15 373.52-25Q374.07-26.35 375.37-26.3L375.37-26.3Q376.12-26.3 376.67-25.8 377.22-25.3 377.22-24.55L377.22-24.55Q377.22-24.25 377.14-23.98 377.07-23.7 376.97-23.5L376.97-23.5 367.32-1.3Q366.77-0.05 365.57 0L365.57 0Q364.92 0.05 364.34-0.28 363.77-0.6 363.52-1.3L363.52-1.3 353.87-23.45Q353.77-23.65 353.69-23.9 353.62-24.15 353.62-24.5L353.62-24.5Q353.62-25.15 354.14-25.73 354.67-26.3 355.62-26.3ZM394.06 0.5L394.06 0.5Q390.06 0.5 387.06-1.2 384.06-2.9 382.41-5.88 380.76-8.85 380.76-12.75L380.76-12.75Q380.76-17.1 382.49-20.18 384.21-23.25 386.96-24.88 389.71-26.5 392.81-26.5L392.81-26.5Q395.16-26.5 397.29-25.65 399.41-24.8 401.09-23.18 402.76-21.55 403.76-19.28 404.76-17 404.81-14.2L404.81-14.2Q404.76-13.4 404.16-12.85 403.56-12.3 402.76-12.3L402.76-12.3 383.01-12.3 382.11-15.75 401.36-15.75 400.56-15.05 400.56-16.15Q400.41-18.2 399.24-19.68 398.06-21.15 396.36-21.95 394.66-22.75 392.81-22.75L392.81-22.75Q391.31-22.75 389.84-22.23 388.36-21.7 387.19-20.53 386.01-19.35 385.31-17.5 384.61-15.65 384.61-13.05L384.61-13.05Q384.61-10.15 385.79-7.95 386.96-5.75 389.06-4.48 391.16-3.2 393.91-3.2L393.91-3.2Q395.71-3.2 397.01-3.65 398.31-4.1 399.24-4.78 400.16-5.45 400.81-6.15L400.81-6.15Q401.46-6.6 402.11-6.6L402.11-6.6Q402.81-6.6 403.31-6.1 403.81-5.6 403.81-4.9L403.81-4.9Q403.81-4.05 403.01-3.4L403.01-3.4Q401.56-1.85 399.19-0.68 396.81 0.5 394.06 0.5ZM423.41-26.5L423.41-26.5Q426.81-26.5 428.76-25.1 430.71-23.7 431.54-21.35 432.36-19 432.36-16.1L432.36-16.1 432.36-2.05Q432.36-1.2 431.79-0.6 431.21 0 430.36 0L430.36 0Q429.51 0 428.94-0.6 428.36-1.2 428.36-2.05L428.36-2.05 428.36-16Q428.36-17.9 427.79-19.43 427.21-20.95 425.89-21.88 424.56-22.8 422.26-22.8L422.26-22.8Q420.16-22.8 418.41-21.88 416.66-20.95 415.61-19.43 414.56-17.9 414.56-16L414.56-16 414.56-2.05Q414.56-1.2 413.99-0.6 413.41 0 412.56 0L412.56 0Q411.71 0 411.14-0.6 410.56-1.2 410.56-2.05L410.56-2.05 410.56-23.85Q410.56-24.7 411.14-25.28 411.71-25.85 412.56-25.85L412.56-25.85Q413.46-25.85 414.01-25.28 414.56-24.7 414.56-23.85L414.56-23.85 414.56-20.3 413.56-19.2Q413.81-20.5 414.71-21.83 415.61-23.15 416.96-24.2 418.31-25.25 419.96-25.88 421.61-26.5 423.41-26.5ZM438.76-25.7L438.76-25.7 450.51-25.7Q451.31-25.7 451.83-25.15 452.36-24.6 452.36-23.85L452.36-23.85Q452.36-23.05 451.83-22.53 451.31-22 450.51-22L450.51-22 438.76-22Q438.01-22 437.46-22.55 436.91-23.1 436.91-23.9L436.91-23.9Q436.91-24.65 437.46-25.18 438.01-25.7 438.76-25.7ZM444.01-32.5L444.01-32.5Q444.86-32.5 445.41-31.93 445.96-31.35 445.96-30.5L445.96-30.5 445.96-6.35Q445.96-5.15 446.31-4.55 446.66-3.95 447.23-3.73 447.81-3.5 448.36-3.5L448.36-3.5Q448.86-3.5 449.23-3.68 449.61-3.85 450.11-3.85L450.11-3.85Q450.61-3.85 451.03-3.38 451.46-2.9 451.46-2.15L451.46-2.15Q451.46-1.25 450.41-0.63 449.36 0 448.06 0L448.06 0Q447.36 0 446.33-0.1 445.31-0.2 444.31-0.75 443.31-1.3 442.63-2.58 441.96-3.85 441.96-6.15L441.96-6.15 441.96-30.5Q441.96-31.35 442.56-31.93 443.16-32.5 444.01-32.5ZM477.26-25.85L477.26-25.85Q478.16-25.85 478.71-25.28 479.26-24.7 479.26-23.85L479.26-23.85 479.26-10.2Q479.26-5.15 476.43-2.38 473.61 0.4 468.56 0.4L468.56 0.4Q463.56 0.4 460.73-2.38 457.91-5.15 457.91-10.2L457.91-10.2 457.91-23.85Q457.91-24.7 458.48-25.28 459.06-25.85 459.91-25.85L459.91-25.85Q460.81-25.85 461.36-25.28 461.91-24.7 461.91-23.85L461.91-23.85 461.91-10.2Q461.91-6.8 463.66-5.05 465.41-3.3 468.56-3.3L468.56-3.3Q471.81-3.3 473.53-5.05 475.26-6.8 475.26-10.2L475.26-10.2 475.26-23.85Q475.26-24.7 475.83-25.28 476.41-25.85 477.26-25.85ZM488.65 0L488.65 0Q487.8 0 487.23-0.6 486.65-1.2 486.65-2.05L486.65-2.05 486.65-23.85Q486.65-24.7 487.23-25.28 487.8-25.85 488.65-25.85L488.65-25.85Q489.55-25.85 490.1-25.28 490.65-24.7 490.65-23.85L490.65-23.85 490.65-17.25 490.05-18.3Q490.35-19.85 491.13-21.33 491.9-22.8 493.1-23.98 494.3-25.15 495.85-25.83 497.4-26.5 499.25-26.5L499.25-26.5Q500.35-26.5 501.28-25.98 502.2-25.45 502.2-24.5L502.2-24.5Q502.2-23.45 501.65-22.95 501.1-22.45 500.4-22.45L500.4-22.45Q499.75-22.45 499.15-22.73 498.55-23 497.65-23L497.65-23Q496.4-23 495.18-22.33 493.95-21.65 492.93-20.4 491.9-19.15 491.28-17.57 490.65-16 490.65-14.2L490.65-14.2 490.65-2.05Q490.65-1.2 490.08-0.6 489.5 0 488.65 0ZM517.3 0.5L517.3 0.5Q513.3 0.5 510.3-1.2 507.3-2.9 505.65-5.88 504-8.85 504-12.75L504-12.75Q504-17.1 505.73-20.18 507.45-23.25 510.2-24.88 512.95-26.5 516.05-26.5L516.05-26.5Q518.4-26.5 520.53-25.65 522.65-24.8 524.33-23.18 526-21.55 527-19.28 528-17 528.05-14.2L528.05-14.2Q528-13.4 527.4-12.85 526.8-12.3 526-12.3L526-12.3 506.25-12.3 505.35-15.75 524.6-15.75 523.8-15.05 523.8-16.15Q523.65-18.2 522.48-19.68 521.3-21.15 519.6-21.95 517.9-22.75 516.05-22.75L516.05-22.75Q514.55-22.75 513.08-22.23 511.6-21.7 510.43-20.53 509.25-19.35 508.55-17.5 507.85-15.65 507.85-13.05L507.85-13.05Q507.85-10.15 509.03-7.95 510.2-5.75 512.3-4.48 514.4-3.2 517.15-3.2L517.15-3.2Q518.95-3.2 520.25-3.65 521.55-4.1 522.48-4.78 523.4-5.45 524.05-6.15L524.05-6.15Q524.7-6.6 525.35-6.6L525.35-6.6Q526.05-6.6 526.55-6.1 527.05-5.6 527.05-4.9L527.05-4.9Q527.05-4.05 526.25-3.4L526.25-3.4Q524.8-1.85 522.43-0.68 520.05 0.5 517.3 0.5Z" opacity="1" transform="matrix(1,0,0,1,0,0)" fill="#f9e17e" class="undefined-text-1" data-fill-palette-color="secondary" id="text-1"></path></svg></g></svg></g></svg></g></svg></g><g transform="matrix(1,0,0,1,419.68180082817275,0)"><svg viewBox="0 0 205.98876430418844 205.98876430418844" height="205.98876430418844" width="205.98876430418844"><g><svg></svg></g><g id="icon-0"><svg viewBox="0 0 205.98876430418844 205.98876430418844" height="205.98876430418844" width="205.98876430418844"><g><path d="M0 102.994c0-56.882 46.112-102.994 102.994-102.994 56.882 0 102.994 46.112 102.995 102.994 0 56.882-46.112 102.994-102.995 102.995-56.882 0-102.994-46.112-102.994-102.995zM102.994 201.374c54.333 0 98.379-44.046 98.38-98.38 0-54.333-44.046-98.379-98.38-98.379-54.333 0-98.379 44.046-98.379 98.379 0 54.333 44.046 98.379 98.379 98.38z" data-fill-palette-color="accent" fill="#f9e17e" stroke="transparent"></path></g><g transform="matrix(1,0,0,1,60.57628908033386,42.07153960111662)"><svg viewBox="0 0 84.83618614352072 121.8456851019552" height="121.8456851019552" width="84.83618614352072"><g><svg xmlns="http://www.w3.org/2000/svg" xmlns:xlink="http://www.w3.org/1999/xlink" version="1.1" x="0" y="0" viewBox="23.5 13.917198181152344 35.70612335205078 51.282798767089844" enable-background="new 0 0 80 80" xml:space="preserve" height="121.8456851019552" width="84.83618614352072" class="icon-s-0" data-fill-palette-color="accent" id="s-0"><g fill="#f9e17e" data-fill-palette-color="accent"><path fill="#f9e17e" d="M28.8 65.2l-5.3-2.7 15.9-31.2 5.3 2.7L28.8 65.2zM26.2 61.6l1.8 0.9L42 34.9 40.3 34 26.2 61.6z" data-fill-palette-color="accent"></path></g><g fill="#f9e17e" data-fill-palette-color="accent"><rect x="30.8" y="21" transform="matrix(0.7071 0.7071 -0.7071 0.7071 25.8076 -18.3051)" fill="#f9e17e" width="8.5" height="2" data-fill-palette-color="accent"></rect></g><g fill="#f9e17e" data-fill-palette-color="accent"><rect x="38" y="17.5" transform="matrix(0.1104 0.9939 -0.9939 0.1104 56.1935 -25.783)" fill="#f9e17e" width="9.1" height="2" data-fill-palette-color="accent"></rect></g><g fill="#f9e17e" data-fill-palette-color="accent"><rect x="49.5" y="15.3" transform="matrix(0.848 0.53 -0.53 0.848 18.2761 -23.7249)" fill="#f9e17e" width="2" height="9.4" data-fill-palette-color="accent"></rect></g><g fill="#f9e17e" data-fill-palette-color="accent"><rect x="53.5" y="22.4" transform="matrix(0.2168 0.9762 -0.9762 0.2168 69.0406 -32.0578)" fill="#f9e17e" width="2" height="9.2" data-fill-palette-color="accent"></rect></g><g fill="#f9e17e" data-fill-palette-color="accent"><rect x="49.5" y="34" transform="matrix(0.8682 0.4961 -0.4961 0.8682 24.4139 -21.9319)" fill="#f9e17e" width="8.1" height="2" data-fill-palette-color="accent"></rect></g><g fill="#f9e17e" data-fill-palette-color="accent"><path fill="#f9e17e" d="M44.5 31c-1.4 0-2.5-1.1-2.5-2.5s1.1-2.5 2.5-2.5 2.5 1.1 2.5 2.5S45.9 31 44.5 31zM44.5 28c-0.3 0-0.5 0.2-0.5 0.5s0.2 0.5 0.5 0.5 0.5-0.2 0.5-0.5S44.8 28 44.5 28z" data-fill-palette-color="accent"></path></g></svg></g></svg></g></svg></g></svg></g></svg></g><defs></defs></svg><rect width="395.52" height="130.21657178383802" fill="none" stroke="none" visibility="hidden"></rect></g></svg></g></svg>